{"title":"Breaking Bad S05E13 - 720p x264 [MKV,AC3,5.1] Ehhhh","uid":8898528,"size":484929190,"categoryP":"video","categoryS":"hd___tv_shows","magnet":"?xt=urn:btih:58474b3f66425867c1cfec041f7e84508f1db7b3&amp;dn=Breaking+Bad+S05E13+-+720p+x264+%5BMKV%2CAC3%2C5.1%5D+Ehhhh&amp;tr=udp%3A%2F%2Ftracker.openbittorrent.com%3A80&amp;tr=udp%3A%2F%2Fopen.demonii.com%3A1337&amp;tr=udp%3A%2F%2Ftracker.coppersurfer.tk%3A6969&amp;tr=udp%3A%2F%2Fexodus.desync.com%3A6969","seeders":5,"leechers":1,"uploader":"Ehhhhtozebec","files":3,"time":1378759224,"description":"image image\n\nTo'hajiilee\nEpisode 13\n9/8/13\n\nThings head up for Walt in unexpected ways.\n\n\n\nimage\nGeneral\nFormat : Matroska\nFormat version : Version 4 / Version 2\nFile size : 461 MiB\nDuration : 45mn 59s\nOverall bit rate : 1 403 Kbps\nEncoded date : UTC 2013-09-09 13:27:42\nWriting application : mkvmerge v6.2.0 ('Promised Land') built on Apr 28 2013 12:22:01\nWriting library : libebml v1.3.0 + libmatroska v1.4.0\n\nVideo\nID : 1\nFormat : AVC\nFormat/Info : Advanced Video Codec\nFormat profile : &lt;a class=&quot;__cf_email__&quot; href=&quot;/cdn-cgi/l/email-protection&quot; data-cfemail=&quot;420a2b252a020e766c73&quot;&gt;[email&amp;#160;protected]&lt;/a&gt;&lt;script cf-hash='f9e31' type=&quot;text/javascript&quot;&gt;\n/* &lt;![CDATA[ */!function(){try{var t=&quot;currentScript&quot;in document?document.currentScript:function(){for(var t=document.getElementsByTagName(&quot;script&quot;),e=t.length;e--;)if(t[e].getAttribute(&quot;cf-hash&quot;))return t[e]}();if(t&amp;&amp;t.previousSibling){var e,r,n,i,c=t.previousSibling,a=c.getAttribute(&quot;data-cfemail&quot;);if(a){for(e=&quot;&quot;,r=parseInt(a.substr(0,2),16),n=2;a.length-n;n+=2)i=parseInt(a.substr(n,2),16)^r,e+=String.fromCharCode(i);e=document.createTextNode(e),c.parentNode.replaceChild(e,c)}}}catch(u){}}();/* ]]&gt; */&lt;/script&gt;\nFormat settings, CABAC : Yes\nFormat settings, ReFrames : 14 frames\nCodec ID : V_MPEG4/ISO/AVC\nDuration : 45mn 59s\nBit rate : 1 010 Kbps\nWidth : 1 280 pixels\nHeight : 720 pixels\nDisplay aspect ratio : 16:9\nFrame rate mode : Constant\nFrame rate : 23.976 fps\nColor space : YUV\nChroma subsampling : 4:2:0\nBit depth : 8 bits\nScan type : Progressive\nBits/(Pixel*Frame) : 0.046\nStream size : 326 MiB (71%)\nWriting library : x264 core 136 r2348+704+51 d1baef6 tMod [8-bit@all X86]\nDefault : Yes\nForced : No\n\nAudio\nID : 2\nFormat : AC-3\nFormat/Info : Audio Coding 3\nMode extension : CM (complete main)\nFormat settings, Endianness : Big\nCodec ID : A_AC3\nDuration : 45mn 59s\nBit rate mode : Constant\nBit rate : 384 Kbps\nChannel(s) : 6 channels\nChannel positions : Front: L C R, Side: L R, LFE\nSampling rate : 48.0 KHz\nBit depth : 16 bits\nCompression mode : Lossy\nStream size : 126 MiB (27%)\nDefault : Yes\nForced : No\n","torrent":{"xt":"urn:btih:58474b3f66425867c1cfec041f7e84508f1db7b3","amp;dn":"Breaking+Bad+S05E13+-+720p+x264+%5BMKV%2CAC3%2C5.1%5D+Ehhhh","amp;tr":["udp%3A%2F%2Ftracker.openbittorrent.com%3A80","udp%3A%2F%2Fopen.demonii.com%3A1337","udp%3A%2F%2Ftracker.coppersurfer.tk%3A6969","udp%3A%2F%2Fexodus.desync.com%3A6969"],"infoHash":"58474b3f66425867c1cfec041f7e84508f1db7b3","infoHashBuffer":{"type":"Buffer","data":[88,71,75,63,102,66,88,103,193,207,236,4,31,126,132,80,143,29,183,179]},"announce":[],"urlList":[]}}